<svg
  version="1.1"
  id="Layer_1"
  xmlns="http://www.w3.org/2000/svg"
  xmlnsXlink="http://www.w3.org/1999/xlink"
  x="0px"
  y="0px"
  width="120px"
  height="86.49px"
  viewBox="0 0 120 86.49"
  enableBackground="new 0 0 120 86.49"
  xmlSpace="preserve"
>
  <path id="XMLID_1924_" fill="#FCB835" d="M4.46,24.22c0,0,8.8,3.6,9.3,13.4l6.2-1.5c0,0,2.3-10.3-9.5-18.8L4.46,24.22z" />
  <path id="XMLID_1969_" fill="#4FB2C8" d="M101.56,57.32c0,0,1.1-15.1,11.8-26.3l-3.8-6.1c0,0-12.2,8.3-17.9,32.4L101.56,57.32z" />
  <path
    id="XMLID_1972_"
    fill="#FCB835"
    d="M111.46,5.82c1.1-1.5,3.3-1.3,4.1,0.3c0.4,0.8,0.3,1.7-0.2,2.4c-1.1,1.5-3.3,1.4-4.1-0.3
C110.86,7.52,110.96,6.52,111.46,5.82z"
  />
  <path
    id="XMLID_1_"
    fill="#FF6A8E"
    d="M13.06,77.92c1.1-1.5,3.3-1.3,4.1,0.3c0.4,0.8,0.3,1.7-0.2,2.4c-1.1,1.5-3.3,1.4-4.1-0.3
C12.46,79.52,12.56,78.62,13.06,77.92z"
  />
  <g id="XMLID_54_"></g>
  <g id="XMLID_55_"></g>
  <g id="XMLID_56_"></g>
  <g id="XMLID_57_"></g>
  <g id="XMLID_58_"></g>
  <g id="XMLID_59_"></g>
  <g id="XMLID_60_"></g>
  <g id="XMLID_61_"></g>
  <g id="XMLID_62_"></g>
  <g id="XMLID_63_"></g>
  <g id="XMLID_64_"></g>
  <g id="XMLID_65_"></g>
  <g id="XMLID_66_"></g>
  <g id="XMLID_67_"></g>
  <g id="XMLID_68_"></g>
</svg>